<svg width="37" height="31" viewBox="0 0 37 31" fill="none" xmlns="http://www.w3.org/2000/svg">
<g clip-path="url(#clip0_1570_268)">
<path d="M26.9521 15.4253C26.9521 10.751 23.1737 6.97266 18.4995 6.97266C13.8252 6.97266 10.0469 10.751 10.0469 15.4253C10.0469 20.0995 13.8252 23.8779 18.4995 23.8779C23.1737 23.8779 26.9521 20.0995 26.9521 15.4253ZM17.1751 18.892C16.8635 18.892 16.5519 18.7751 16.3571 18.5414L14.2147 16.438C13.7473 15.9706 13.7473 15.2305 14.2147 14.7631C14.6822 14.2956 15.4223 14.2956 15.8897 14.7631L17.1751 16.0485L20.6029 12.6207C21.0703 12.1533 21.8104 12.1533 22.2778 12.6207C22.7452 13.0881 22.7452 13.8282 22.2778 14.2956L17.9931 18.5414C17.7594 18.7362 17.4867 18.892 17.1751 18.892Z" fill="white"/>
<path d="M36.883 17.1C36.7272 16.7883 36.4156 16.5936 36.065 16.5936H33.9226V15.425C33.9226 11.2961 32.3256 7.43985 29.4042 4.51844C26.4828 1.59703 22.6265 0 18.4976 0C14.8751 0 11.3304 1.28542 8.56484 3.62254C8.33113 3.8173 8.17532 4.12892 8.13637 4.44054C8.09742 4.75215 8.21427 5.06377 8.40903 5.29748C8.60379 5.53119 8.87646 5.687 9.22703 5.72595C9.53864 5.76491 9.85026 5.64805 10.084 5.45329C12.4211 3.46673 15.4204 2.37608 18.4976 2.37608C25.7038 2.37608 31.5466 8.21889 31.5466 15.425V16.5936H29.4042C29.0536 16.5936 28.742 16.7883 28.5473 17.1C28.3914 17.4116 28.3914 17.8011 28.5862 18.0738L31.9361 23.2154C32.0919 23.4881 32.4035 23.6439 32.7541 23.6439C33.1046 23.6439 33.4163 23.4881 33.5721 23.2154L36.883 18.0738C37.0388 17.7621 37.0388 17.4116 36.883 17.1Z" fill="white"/>
<path d="M27.8073 25.125C27.4957 25.086 27.1841 25.2029 26.9504 25.3976C24.6132 27.3842 21.6139 28.4749 18.5367 28.4749C11.3306 28.4749 5.48778 22.6321 5.48778 15.4259V14.2574H7.63014C7.98071 14.2574 8.29233 14.0626 8.48709 13.751C8.6429 13.4394 8.6429 13.0498 8.44814 12.7772L5.05931 7.6355C4.86455 7.36284 4.59188 7.20703 4.24131 7.20703C3.9297 7.20703 3.61808 7.36284 3.42332 7.6355L0.151346 12.7772C-0.0434145 13.0888 -0.0434145 13.4394 0.112394 13.751C0.268202 14.0626 0.618771 14.2574 0.969339 14.2574H3.1117V15.4259C3.1117 19.5159 4.70874 23.4111 7.63014 26.3325C10.5515 29.2539 14.4078 30.8509 18.5367 30.8509C22.1593 30.8509 25.7039 29.5655 28.4695 27.2284C28.7032 27.0336 28.859 26.722 28.898 26.4104C28.9369 26.0988 28.8201 25.7872 28.6253 25.5535C28.3916 25.2808 28.1189 25.1639 27.8073 25.125Z" fill="white"/>
</g>
<defs>
<clipPath id="clip0_1570_268">
<rect width="37" height="31" fill="white"/>
</clipPath>
</defs>
</svg>
