<svg width="64" height="64" viewBox="0 0 64 64" fill="none" xmlns="http://www.w3.org/2000/svg">
<path d="M2.17934 0H63.3333V52.4355H42.7681V48.0822H58.9746V4.35846H4.35869V48.0822H20.5652V52.4355H0V0H2.17934ZM16.9145 36.3137L31.6667 14.6221L46.4132 36.3137H38.686V63.3333H24.6419V36.3137H16.9145Z" fill="#6C95F8"/>
<path d="M0.0199992 63.417C0.018632 63.4184 0.0172649 63.4188 0.0163534 63.4188H0.0127075C0.00906169 63.4188 0.00587155 63.4184 0.00359294 63.417C0.00222572 63.4147 0.00177002 63.4115 0.00177002 63.4079C0.00177002 63.4042 0.00222574 63.402 0.00359294 63.4006C0.00587155 63.3983 0.00906169 63.3969 0.0127075 63.3969H0.0163534C0.0172649 63.3969 0.018632 63.3979 0.0199992 63.3988V63.4024H0.0163534C0.0149861 63.4015 0.013619 63.4006 0.0127075 63.4006C0.0113403 63.4006 0.00997309 63.4015 0.00906169 63.4024C0.00769447 63.4038 0.00723877 63.4056 0.00723877 63.4079C0.00723877 63.4106 0.00769449 63.4124 0.00906169 63.4133C0.00997314 63.4147 0.0113403 63.4152 0.0127075 63.4152H0.0163534C0.0172649 63.4143 0.018632 63.4133 0.0199992 63.4133V63.417Z" fill="#6C95F8"/>
<path d="M0.0352824 63.4077C0.0352824 63.4068 0.034371 63.4059 0.0334595 63.4059C0.030725 63.4059 0.0289022 63.4068 0.0279907 63.4077V63.4113V63.4186H0.022522V63.4022H0.0279907V63.4059C0.0289022 63.405 0.0298136 63.404 0.0298136 63.404C0.0307251 63.4031 0.0320923 63.4022 0.0334595 63.4022H0.0352824V63.4077Z" fill="#6C95F8"/>
<path d="M0.0530884 63.4095V63.4113H0.0421509V63.415H0.0457967H0.0494425C0.0503539 63.415 0.0517212 63.4145 0.0530884 63.4132V63.4168C0.0517212 63.4182 0.0503539 63.4186 0.0494425 63.4186H0.0457967C0.0421509 63.4186 0.0394164 63.4182 0.038505 63.4168C0.0371378 63.4159 0.0366821 63.4141 0.0366821 63.4113C0.0366821 63.4077 0.0371379 63.4054 0.038505 63.404C0.0394165 63.4031 0.0421509 63.4022 0.0457967 63.4022C0.0480753 63.4022 0.0498982 63.4031 0.0512655 63.404C0.052177 63.4054 0.0530884 63.4072 0.0530884 63.4095ZM0.0476196 63.4095C0.0476196 63.4086 0.0467081 63.4077 0.0457967 63.4077V63.4059C0.0444295 63.4059 0.0430623 63.4068 0.0421509 63.4077V63.4095H0.0476196Z" fill="#6C95F8"/>
<path d="M0.0629557 63.4113L0.0611328 63.4132V63.415H0.0629557H0.0647786C0.06569 63.4141 0.0666016 63.4127 0.0666016 63.4113H0.0629557ZM0.0720703 63.4095V63.4186H0.0666016V63.4168C0.0652343 63.4168 0.0638671 63.4177 0.0629557 63.4186H0.0611328H0.057487C0.0561198 63.4177 0.0556641 63.4159 0.0556641 63.4132C0.0556641 63.4122 0.0561198 63.4109 0.057487 63.4095C0.0583984 63.4086 0.0602214 63.4077 0.0629557 63.4077H0.0666016C0.0666016 63.4068 0.06569 63.4059 0.0647786 63.4059H0.0629557H0.0593099H0.057487V63.4022H0.0593099H0.0629557C0.0666016 63.4022 0.0688802 63.4031 0.0702474 63.404C0.0711589 63.4054 0.0720703 63.4072 0.0720703 63.4095Z" fill="#6C95F8"/>
<path d="M0.0820516 63.3987V63.4024H0.0856974V63.406H0.0820516V63.4133V63.4151H0.0838745H0.0856974V63.4188H0.0820516C0.0793172 63.4188 0.0774944 63.4183 0.0765828 63.4169V63.4133V63.406H0.072937V63.4024H0.0765828V63.3987H0.0820516Z" fill="#6C95F8"/>
<path d="M0.104724 63.4095V63.4113H0.0937866V63.415H0.0974325H0.101078C0.10199 63.415 0.103357 63.4145 0.104724 63.4132V63.4168C0.103357 63.4182 0.10199 63.4186 0.101078 63.4186H0.0974325C0.0937866 63.4186 0.0910522 63.4182 0.0901408 63.4168C0.0887736 63.4159 0.0883179 63.4141 0.0883179 63.4113C0.0883179 63.4077 0.0887736 63.4054 0.0901408 63.404C0.0910522 63.4031 0.0937866 63.4022 0.0974325 63.4022C0.0997111 63.4022 0.101534 63.4031 0.102901 63.404C0.103813 63.4054 0.104724 63.4072 0.104724 63.4095ZM0.0992554 63.4095C0.0992554 63.4086 0.0983439 63.4077 0.0974325 63.4077V63.4059C0.0960652 63.4059 0.094698 63.4068 0.0937866 63.4077V63.4095H0.0992554Z" fill="#6C95F8"/>
<path d="M0.118298 63.4042V63.3969H0.123767V63.4188H0.118298V63.417C0.118298 63.417 0.117387 63.4179 0.116475 63.4188H0.114653C0.111918 63.4188 0.110095 63.4184 0.109184 63.417C0.107817 63.4161 0.107361 63.4143 0.107361 63.4115C0.107361 63.4079 0.107817 63.4056 0.109184 63.4042C0.110095 63.4033 0.111918 63.4024 0.114653 63.4024C0.114653 63.4024 0.115108 63.4033 0.116475 63.4042H0.118298ZM0.116475 63.4152C0.117387 63.4143 0.118298 63.4129 0.118298 63.4115C0.118298 63.4092 0.117387 63.4079 0.116475 63.4079V63.4061C0.115108 63.4061 0.113741 63.407 0.11283 63.4079V63.4115V63.4152H0.116475Z" fill="#6C95F8"/>
<path d="M0.146932 63.4152H0.148755C0.149666 63.4143 0.150578 63.4129 0.150578 63.4115C0.150578 63.4092 0.149666 63.4079 0.148755 63.4079C0.148755 63.407 0.147843 63.4061 0.146932 63.4061C0.145565 63.4061 0.144198 63.407 0.143286 63.4079V63.4115V63.4152H0.146932ZM0.143286 63.4042H0.145109C0.146021 63.4033 0.147388 63.4024 0.148755 63.4024C0.151033 63.4024 0.152856 63.4033 0.154224 63.4042C0.155135 63.4056 0.156047 63.4079 0.156047 63.4115C0.156047 63.4143 0.155135 63.4161 0.154224 63.417C0.152856 63.4184 0.151033 63.4188 0.148755 63.4188H0.145109C0.145109 63.4179 0.144198 63.417 0.143286 63.417V63.4188H0.137817V63.3969H0.143286V63.4042Z" fill="#6C95F8"/>
<path d="M0.155945 63.4022H0.161414L0.165059 63.4132L0.168705 63.4022H0.174174L0.168705 63.4205C0.167338 63.4214 0.165971 63.4227 0.165059 63.4241C0.165059 63.425 0.163692 63.4259 0.161414 63.4259H0.159591V63.4223H0.161414V63.4205H0.163236V63.4186L0.155945 63.4022Z" fill="#6C95F8"/>
<path d="M0.191443 63.4168V63.4241H0.185974V63.4022H0.191443V63.404H0.193266C0.194177 63.4031 0.195544 63.4022 0.196912 63.4022C0.19919 63.4022 0.201013 63.4031 0.20238 63.404C0.203292 63.4054 0.204203 63.4077 0.204203 63.4113C0.204203 63.4141 0.203292 63.4159 0.20238 63.4168C0.201013 63.4182 0.19919 63.4186 0.196912 63.4186H0.193266C0.193266 63.4177 0.192354 63.4168 0.191443 63.4168ZM0.195089 63.4059C0.193721 63.4059 0.192354 63.4068 0.191443 63.4077V63.4113V63.415H0.195089H0.196912C0.197823 63.4141 0.198735 63.4127 0.198735 63.4113C0.198735 63.4091 0.197823 63.4077 0.196912 63.4077C0.196912 63.4068 0.196 63.4059 0.195089 63.4059Z" fill="#6C95F8"/>
<path d="M0.215413 63.4059C0.214046 63.4059 0.212679 63.4068 0.211768 63.4077V63.4113V63.415H0.215413H0.217236C0.218148 63.4141 0.219059 63.4127 0.219059 63.4113C0.219059 63.4091 0.218148 63.4077 0.217236 63.4077C0.217236 63.4068 0.216325 63.4059 0.215413 63.4059ZM0.215413 63.4022C0.217692 63.4022 0.219515 63.4031 0.220882 63.404C0.221794 63.4054 0.222705 63.4077 0.222705 63.4113C0.222705 63.4141 0.221794 63.4159 0.220882 63.4168C0.219515 63.4182 0.217692 63.4186 0.215413 63.4186C0.211768 63.4186 0.209033 63.4182 0.208122 63.4168C0.206755 63.4159 0.206299 63.4141 0.206299 63.4113C0.206299 63.4077 0.206755 63.4054 0.208122 63.404C0.209033 63.4031 0.211768 63.4022 0.215413 63.4022Z" fill="#6C95F8"/>
<path d="M0.231238 63.4168V63.4241H0.225769V63.4022H0.231238V63.404H0.233061C0.233972 63.4031 0.235339 63.4022 0.236707 63.4022C0.238985 63.4022 0.240808 63.4031 0.242175 63.404C0.243087 63.4054 0.243998 63.4077 0.243998 63.4113C0.243998 63.4141 0.243087 63.4159 0.242175 63.4168C0.240808 63.4182 0.238985 63.4186 0.236707 63.4186H0.233061C0.233061 63.4177 0.232149 63.4168 0.231238 63.4168ZM0.234884 63.4059C0.233516 63.4059 0.232149 63.4068 0.231238 63.4077V63.4113V63.415H0.234884H0.236707C0.237618 63.4141 0.238529 63.4127 0.238529 63.4113C0.238529 63.4091 0.237618 63.4077 0.236707 63.4077C0.236707 63.4068 0.235795 63.4059 0.234884 63.4059Z" fill="#6C95F8"/>
<path d="M0.260677 63.4022V63.4077C0.25931 63.4068 0.257943 63.4059 0.257031 63.4059H0.255208C0.253841 63.4059 0.252474 63.4068 0.251562 63.4077V63.4113V63.415H0.255208H0.257031C0.257943 63.415 0.25931 63.4145 0.260677 63.4132V63.4186H0.257031H0.255208C0.251562 63.4186 0.248828 63.4182 0.247917 63.4168C0.246549 63.4159 0.246094 63.4141 0.246094 63.4113C0.246094 63.4077 0.246549 63.4054 0.247917 63.404C0.248828 63.4031 0.251562 63.4022 0.255208 63.4022H0.257031H0.260677Z" fill="#6C95F8"/>
<path d="M0.271932 63.4059C0.270565 63.4059 0.269198 63.4068 0.268286 63.4077V63.4113V63.415H0.271932H0.273755C0.274666 63.4141 0.275578 63.4127 0.275578 63.4113C0.275578 63.4091 0.274666 63.4077 0.273755 63.4077C0.273755 63.4068 0.272843 63.4059 0.271932 63.4059ZM0.271932 63.4022C0.274211 63.4022 0.276033 63.4031 0.277401 63.404C0.278312 63.4054 0.279224 63.4077 0.279224 63.4113C0.279224 63.4141 0.278312 63.4159 0.277401 63.4168C0.276033 63.4182 0.274211 63.4186 0.271932 63.4186C0.268286 63.4186 0.265552 63.4182 0.26464 63.4168C0.263273 63.4159 0.262817 63.4141 0.262817 63.4113C0.262817 63.4077 0.263273 63.4054 0.26464 63.404C0.265552 63.4031 0.268286 63.4022 0.271932 63.4022Z" fill="#6C95F8"/>
<path d="M0.295048 63.4077C0.295048 63.4068 0.294137 63.4059 0.293225 63.4059C0.290491 63.4059 0.288668 63.4068 0.287756 63.4077V63.4113V63.4186H0.282288V63.4022H0.287756V63.4059C0.288668 63.405 0.289579 63.404 0.289579 63.404C0.290491 63.4031 0.291858 63.4022 0.293225 63.4022H0.295048V63.4077Z" fill="#6C95F8"/>
<path d="M0.312854 63.4095V63.4186H0.307385V63.4113V63.4095V63.4077V63.4059H0.305562C0.304195 63.4059 0.302828 63.4068 0.301917 63.4077V63.4113V63.4186H0.296448V63.4022H0.301917V63.404H0.303739C0.304651 63.4031 0.306018 63.4022 0.307385 63.4022C0.309664 63.4022 0.311031 63.4031 0.311031 63.404C0.311943 63.4054 0.312854 63.4072 0.312854 63.4095V63.4095Z" fill="#6C95F8"/>
<path d="M0.323576 63.4113L0.321753 63.4132V63.415H0.323576H0.325399C0.32631 63.4141 0.327222 63.4127 0.327222 63.4113H0.323576ZM0.33269 63.4095V63.4186H0.327222V63.4168C0.325854 63.4168 0.324487 63.4177 0.323576 63.4186H0.321753H0.318107C0.31674 63.4177 0.316284 63.4159 0.316284 63.4132C0.316284 63.4122 0.31674 63.4109 0.318107 63.4095C0.319019 63.4086 0.320842 63.4077 0.323576 63.4077H0.327222C0.327222 63.4068 0.32631 63.4059 0.325399 63.4059H0.323576H0.31993H0.318107V63.4022H0.31993H0.323576C0.327222 63.4022 0.3295 63.4031 0.330868 63.404C0.331779 63.4054 0.33269 63.4072 0.33269 63.4095Z" fill="#6C95F8"/>
<path d="M0.348515 63.4077C0.348515 63.4068 0.347603 63.4059 0.346692 63.4059C0.343957 63.4059 0.342135 63.4068 0.341223 63.4077V63.4113V63.4186H0.335754V63.4022H0.341223V63.4059C0.342135 63.405 0.343046 63.404 0.343046 63.404C0.343958 63.4031 0.345325 63.4022 0.346692 63.4022H0.348515V63.4077Z" fill="#6C95F8"/>
<path d="M0.356771 63.3987V63.4024H0.360417V63.406H0.356771V63.4133V63.4151H0.358594H0.360417V63.4188H0.356771C0.354036 63.4188 0.352214 63.4183 0.351302 63.4169V63.4133V63.406H0.347656V63.4024H0.351302V63.3987H0.356771Z" fill="#6C95F8"/>
<path d="M0.37592 63.4022V63.4077C0.374552 63.4068 0.373185 63.4059 0.372274 63.4059H0.370451H0.366805V63.4077H0.370451C0.372729 63.4091 0.374552 63.4104 0.37592 63.4113C0.376831 63.4113 0.377743 63.4122 0.377743 63.4132C0.377743 63.4159 0.376831 63.4177 0.37592 63.4186H0.370451H0.366805H0.363159V63.4132C0.364071 63.4145 0.365438 63.415 0.366805 63.415H0.370451C0.371362 63.415 0.372274 63.4145 0.372274 63.4132C0.372274 63.4132 0.371362 63.4127 0.370451 63.4113H0.368628H0.363159V63.4077C0.363159 63.4054 0.363615 63.404 0.364982 63.404C0.365894 63.4031 0.367717 63.4022 0.370451 63.4022H0.372274H0.37592Z" fill="#6C95F8"/>
<path d="M0.0127604 63.4252V63.4288H0.0109375H0.00911458V63.4307H0.0127604V63.4343H0.00911458V63.4471H0.00364583V63.4343H0V63.4307H0.00364583V63.427C0.00455729 63.4261 0.00638027 63.4252 0.00911458 63.4252H0.0127604Z" fill="#6C95F8"/>
<path d="M0.0269206 63.436C0.0269206 63.4351 0.0260092 63.4342 0.0250977 63.4342C0.0223632 63.4342 0.0205404 63.4351 0.0196289 63.436V63.4396V63.4469H0.0141602V63.4305H0.0196289V63.4342C0.0205404 63.4332 0.0214518 63.4323 0.0214518 63.4323C0.0223633 63.4314 0.0237304 63.4305 0.0250977 63.4305H0.0269206V63.436Z" fill="#6C95F8"/>
<path d="M0.0369466 63.4342C0.0355794 63.4342 0.0342122 63.4351 0.0333008 63.436V63.4396V63.4433H0.0369466H0.0387695C0.039681 63.4424 0.0405924 63.441 0.0405924 63.4396C0.0405924 63.4373 0.039681 63.436 0.0387695 63.436C0.0387695 63.4351 0.037858 63.4342 0.0369466 63.4342ZM0.0369466 63.4305C0.0392252 63.4305 0.0410481 63.4314 0.0424154 63.4323C0.0433269 63.4337 0.0442383 63.436 0.0442383 63.4396C0.0442383 63.4424 0.0433269 63.4442 0.0424154 63.4451C0.0410481 63.4465 0.0392252 63.4469 0.0369466 63.4469C0.0333008 63.4469 0.0305663 63.4465 0.0296549 63.4451C0.0282877 63.4442 0.027832 63.4424 0.027832 63.4396C0.027832 63.436 0.0282878 63.4337 0.0296549 63.4323C0.0305664 63.4314 0.0333008 63.4305 0.0369466 63.4305Z" fill="#6C95F8"/>
<path d="M0.0636475 63.4342C0.0636475 63.4332 0.0641032 63.4323 0.0654704 63.4323C0.0663819 63.4314 0.0672933 63.4305 0.0672933 63.4305C0.0695719 63.4305 0.0713948 63.4314 0.072762 63.4323C0.0736736 63.4337 0.074585 63.4355 0.074585 63.4378V63.4469H0.0691162V63.4378C0.0691162 63.4369 0.0682047 63.436 0.0672933 63.436V63.4342C0.0659261 63.4342 0.0645589 63.4351 0.0636475 63.436V63.4396V63.4469H0.0581787V63.4378V63.436C0.0581787 63.4351 0.0572672 63.4342 0.0563558 63.4342C0.0549886 63.4342 0.0536214 63.4351 0.05271 63.436V63.4396V63.4469H0.0472412V63.4305H0.05271V63.4323H0.0545329C0.0554443 63.4314 0.0568115 63.4305 0.0581787 63.4305C0.0590902 63.4305 0.0600016 63.4314 0.0600016 63.4323C0.060913 63.4323 0.0622802 63.4332 0.0636475 63.4342V63.4342Z" fill="#6C95F8"/>
<path d="M0.0943807 63.427V63.4306H0.0980265V63.4343H0.0943807V63.4416V63.4434H0.0962036H0.0980265V63.447H0.0943807C0.0916463 63.447 0.0898235 63.4466 0.0889119 63.4452V63.4416V63.4343H0.0852661V63.4306H0.0889119V63.427H0.0943807Z" fill="#6C95F8"/>
<path d="M0.116687 63.438V63.4471H0.111218V63.4398V63.438V63.4361V63.4343H0.109395C0.108028 63.4343 0.106661 63.4352 0.10575 63.4361V63.4398V63.4471H0.100281V63.4252H0.10575V63.4325H0.107572C0.108484 63.4316 0.109851 63.4307 0.111218 63.4307C0.113497 63.4307 0.114864 63.4316 0.114864 63.4325C0.115776 63.4339 0.116687 63.4357 0.116687 63.438Z" fill="#6C95F8"/>
<path d="M0.137012 63.4378V63.4396H0.126074V63.4433H0.12972H0.133366C0.134277 63.4433 0.135644 63.4428 0.137012 63.4414V63.4451C0.135644 63.4465 0.134277 63.4469 0.133366 63.4469H0.12972C0.126074 63.4469 0.12334 63.4465 0.122428 63.4451C0.121061 63.4442 0.120605 63.4424 0.120605 63.4396C0.120605 63.436 0.121061 63.4337 0.122428 63.4323C0.12334 63.4314 0.126074 63.4305 0.12972 63.4305C0.131999 63.4305 0.133822 63.4314 0.135189 63.4323C0.1361 63.4337 0.137012 63.4355 0.137012 63.4378ZM0.131543 63.4378C0.131543 63.4369 0.130631 63.436 0.12972 63.436V63.4342C0.128353 63.4342 0.126986 63.4351 0.126074 63.436V63.4378H0.131543Z" fill="#6C95F8"/>
<path d="M0.15155 63.4252H0.157019L0.164311 63.4398V63.4252H0.169779V63.4471H0.164311L0.155196 63.4325V63.4471H0.15155V63.4252Z" fill="#6C95F8"/>
<path d="M0.182271 63.4342C0.180904 63.4342 0.179537 63.4351 0.178625 63.436V63.4396V63.4433H0.182271H0.184094C0.185006 63.4424 0.185917 63.441 0.185917 63.4396C0.185917 63.4373 0.185006 63.436 0.184094 63.436C0.184094 63.4351 0.183183 63.4342 0.182271 63.4342ZM0.182271 63.4305C0.18455 63.4305 0.186373 63.4314 0.18774 63.4323C0.188652 63.4337 0.189563 63.436 0.189563 63.4396C0.189563 63.4424 0.188652 63.4442 0.18774 63.4451C0.186373 63.4465 0.18455 63.4469 0.182271 63.4469C0.178625 63.4469 0.175891 63.4465 0.17498 63.4451C0.173612 63.4442 0.173157 63.4424 0.173157 63.4396C0.173157 63.436 0.173612 63.4337 0.17498 63.4323C0.175891 63.4314 0.178625 63.4305 0.182271 63.4305Z" fill="#6C95F8"/>
<path d="M0.192627 63.4396V63.4305H0.198096V63.4323V63.436V63.4378V63.4414C0.199007 63.4428 0.199919 63.4433 0.199919 63.4433H0.201742C0.202653 63.4424 0.203564 63.4405 0.203564 63.4378V63.4305H0.209033V63.4469H0.203564V63.4451C0.203564 63.4451 0.202653 63.446 0.201742 63.4469H0.198096C0.196728 63.4469 0.195361 63.4465 0.19445 63.4451C0.193083 63.4442 0.192627 63.4424 0.192627 63.4396V63.4396Z" fill="#6C95F8"/>
<path d="M0.229358 63.4378V63.4469H0.223889V63.4396V63.4378V63.436V63.4342H0.222066C0.220699 63.4342 0.219332 63.4351 0.21842 63.436V63.4396V63.4469H0.212952V63.4305H0.21842V63.4323H0.220243C0.221155 63.4314 0.222522 63.4305 0.223889 63.4305C0.226168 63.4305 0.227535 63.4314 0.227535 63.4323C0.228447 63.4337 0.229358 63.4355 0.229358 63.4378V63.4378Z" fill="#6C95F8"/>
<path d="M0.244751 63.4252H0.253866C0.256144 63.4252 0.257967 63.4261 0.259334 63.427C0.260246 63.4284 0.261157 63.4302 0.261157 63.4325C0.261157 63.4352 0.260246 63.4371 0.259334 63.438C0.257967 63.4393 0.256144 63.4398 0.253866 63.4398H0.25022V63.4471H0.244751V63.4252ZM0.25022 63.4288V63.4361H0.252043H0.253866C0.254777 63.4352 0.255688 63.4339 0.255688 63.4325C0.255688 63.4316 0.254777 63.4307 0.253866 63.4307C0.253866 63.4298 0.252954 63.4288 0.252043 63.4288H0.25022Z" fill="#6C95F8"/>
<path d="M0.276493 63.436C0.276493 63.4351 0.275582 63.4342 0.27467 63.4342C0.271936 63.4342 0.270113 63.4351 0.269202 63.436V63.4396V63.4469H0.263733V63.4305H0.269202V63.4342C0.270113 63.4332 0.271025 63.4323 0.271025 63.4323C0.271936 63.4314 0.273303 63.4305 0.27467 63.4305H0.276493V63.436Z" fill="#6C95F8"/>
<path d="M0.28658 63.4342C0.285213 63.4342 0.283846 63.4351 0.282935 63.436V63.4396V63.4433H0.28658H0.288403C0.289315 63.4424 0.290226 63.441 0.290226 63.4396C0.290226 63.4373 0.289315 63.436 0.288403 63.436C0.288403 63.4351 0.287492 63.4342 0.28658 63.4342ZM0.28658 63.4305C0.288859 63.4305 0.290682 63.4314 0.292049 63.4323C0.292961 63.4337 0.293872 63.436 0.293872 63.4396C0.293872 63.4424 0.292961 63.4442 0.292049 63.4451C0.290682 63.4465 0.288859 63.4469 0.28658 63.4469C0.282935 63.4469 0.2802 63.4465 0.279289 63.4451C0.277922 63.4442 0.277466 63.4424 0.277466 63.4396C0.277466 63.436 0.277922 63.4337 0.279289 63.4323C0.2802 63.4314 0.282935 63.4305 0.28658 63.4305Z" fill="#6C95F8"/>
<path d="M0.296981 63.4307H0.30245V63.4471C0.30245 63.4494 0.301538 63.4512 0.300627 63.4525C0.300627 63.4535 0.299259 63.4544 0.296981 63.4544H0.293335V63.4507H0.295158C0.296069 63.4507 0.296981 63.4498 0.296981 63.4489V63.4471V63.4307ZM0.296981 63.4252H0.30245V63.4288H0.296981V63.4252Z" fill="#6C95F8"/>
<path d="M0.322986 63.4378V63.4396H0.312048V63.4433H0.315694H0.31934C0.320251 63.4433 0.321619 63.4428 0.322986 63.4414V63.4451C0.321619 63.4465 0.320251 63.4469 0.31934 63.4469H0.315694C0.312048 63.4469 0.309314 63.4465 0.308403 63.4451C0.307035 63.4442 0.30658 63.4424 0.30658 63.4396C0.30658 63.436 0.307035 63.4337 0.308403 63.4323C0.309314 63.4314 0.312048 63.4305 0.315694 63.4305C0.317973 63.4305 0.319796 63.4314 0.321163 63.4323C0.322074 63.4337 0.322986 63.4355 0.322986 63.4378ZM0.317517 63.4378C0.317517 63.4369 0.316606 63.436 0.315694 63.436V63.4342C0.314327 63.4342 0.31296 63.4351 0.312048 63.436V63.4378H0.317517Z" fill="#6C95F8"/>
<path d="M0.340633 63.4305V63.436C0.339266 63.4351 0.337899 63.4342 0.336987 63.4342H0.335164C0.333797 63.4342 0.33243 63.4351 0.331519 63.436V63.4396V63.4433H0.335164H0.336987C0.337899 63.4433 0.339266 63.4428 0.340633 63.4414V63.4469H0.336987H0.335164C0.331519 63.4469 0.328784 63.4465 0.327873 63.4451C0.326506 63.4442 0.32605 63.4424 0.32605 63.4396C0.32605 63.436 0.326506 63.4337 0.327873 63.4323C0.328784 63.4314 0.331519 63.4305 0.335164 63.4305H0.336987H0.340633Z" fill="#6C95F8"/>
<path d="M0.350179 63.427V63.4306H0.353825V63.4343H0.350179V63.4416V63.4434H0.352002H0.353825V63.447H0.350179C0.347445 63.447 0.345622 63.4466 0.34471 63.4452V63.4416V63.4343H0.341064V63.4306H0.34471V63.427H0.350179Z" fill="#6C95F8"/>
</svg>
