<svg width="37" height="37" viewBox="0 0 37 37" fill="none" xmlns="http://www.w3.org/2000/svg">
<path d="M2 25C2.5 28.5 4.8 33.7 12 32.5C21 31 27 17 28.5 7" stroke="white" stroke-width="3" stroke-linecap="round"/>
<path d="M4.5 13C11.5 11 30.2 14.0589 31 30.8589" stroke="white" stroke-width="3" stroke-linecap="round"/>
<path d="M16.7679 22.5793L12.2389 24.2672C10.9895 24.7328 9.64297 23.8687 9.54579 22.5389L9.19354 17.7184" stroke="white" stroke-width="3" stroke-linecap="round"/>
<path d="M34.8979 28L32.6128 32.259C31.9824 33.4339 30.4006 33.6746 29.4492 32.7405L26.0004 29.3542" stroke="white" stroke-width="3" stroke-linecap="round"/>
<path d="M23.9986 7.80403L27.784 4.79878C28.8283 3.96974 30.376 4.37533 30.8795 5.60995L32.7046 10.0854" stroke="white" stroke-width="3" stroke-linecap="round"/>
<path d="M15.5 2C16 5.66667 16.7 16.5 11.5 22.5" stroke="white" stroke-width="3" stroke-linecap="round"/>
</svg>
