<svg width="29" height="32" viewBox="0 0 29 32" fill="none" xmlns="http://www.w3.org/2000/svg">
<path d="M28.9817 7.39518L28.9099 5.17013L26.6328 5.00004C22.8044 4.65763 19.142 3.30808 16.0355 1.09509L14.5004 0L12.9959 1.09509C9.8786 3.31294 6.20339 4.66255 2.36297 5.00004L0.0908794 5.16009L0.0193755 7.39513C-0.354122 18.8952 4.69121 27.8953 13.5132 31.585L14.5007 32L15.4936 31.585C24.3101 27.9149 29.34 18.8701 28.9821 7.39513L28.9817 7.39518ZM14.6025 29.5502L14.5001 29.5902L14.4028 29.5502C2.97628 24.7953 2.12188 12.4998 2.28563 7.46489V7.23989H2.51589C6.79252 6.86043 10.8827 5.34971 14.3465 2.86997L14.5 2.75993L14.6535 2.86997C18.1162 5.34256 22.2022 6.84812 26.4736 7.22492H26.7039V7.44992C26.878 12.5 26.0234 24.7901 14.6019 29.5501L14.6025 29.5502Z" fill="#6096FF"/>
<path d="M14.5054 10C12.7812 9.99858 11.127 10.6821 9.90693 11.9005C8.68691 13.1189 8.00097 14.7722 8 16.4964C7.99905 18.2207 8.68333 19.8747 9.90189 21.0942C11.1207 22.314 12.774 22.9995 14.4982 23C16.2224 23.0005 17.8761 22.3159 19.0955 21.0969C20.3148 19.8778 21 18.2242 21 16.5C20.9986 14.7774 20.3141 13.1257 19.0964 11.9072C17.879 10.6886 16.2278 10.0028 14.5053 10H14.5054ZM16.0998 19.684H12.8792L13.6019 16.543V16.5427C13.1641 16.2787 12.8644 15.8354 12.7821 15.3308C12.7 14.8261 12.8433 14.3107 13.1746 13.9212C13.5058 13.5316 13.9914 13.3071 14.5028 13.3071C15.0141 13.3071 15.4995 13.5316 15.8307 13.9212C16.1619 14.3108 16.3055 14.8261 16.2232 15.3308C16.1411 15.8354 15.8414 16.2786 15.4036 16.5427L16.0998 19.684Z" fill="#3259A6"/>
</svg>
