<svg width="30" height="27" viewBox="0 0 30 27" fill="none" xmlns="http://www.w3.org/2000/svg">
<path d="M3.93333 15.1111V14.1111H2.93333H2C1.44772 14.1111 1 13.6634 1 13.1111V2C1 1.44772 1.44771 1 2 1H18C18.5523 1 19 1.44772 19 2V13.1111C19 13.6634 18.5523 14.1111 18 14.1111H9.06667H8.71688L8.44335 14.3291L3.93333 17.9241V15.1111Z" stroke="#6096FF" stroke-width="2"/>
<path d="M26.0667 22.1111V21.1111H27.0667H28C28.5523 21.1111 29 20.6634 29 20.1111V9C29 8.44772 28.5523 8 28 8H12C11.4477 8 11 8.44772 11 9V20.1111C11 20.6634 11.4477 21.1111 12 21.1111H20.9333H21.2831L21.5566 21.3291L26.0667 24.9241V22.1111Z" fill="white" stroke="#3259A6" stroke-width="2"/>
</svg>
