<svg width="29" height="35" viewBox="0 0 29 35" fill="none" xmlns="http://www.w3.org/2000/svg">
<path d="M28.8954 15.9252C28.8954 13.0668 26.5651 10.7918 23.7688 10.7918H23.5357V9.10009C23.5357 6.65006 22.6036 4.37504 20.8559 2.68336C19.1665 0.933342 16.8945 0 14.4477 0C9.43759 0 5.35962 4.08337 5.35962 9.10009V10.7918H5.12659C2.27201 10.7918 0 13.1251 0 15.9252V29.8666C0 32.725 2.33027 35 5.12659 35H23.7688C26.6233 35 28.8954 32.6666 28.8954 29.8666V15.9252ZM8.27246 9.09975C8.27246 5.65805 11.0688 2.91636 14.4477 2.91636C16.0789 2.91636 17.6518 3.55803 18.8169 4.72471C19.9821 5.89139 20.6229 7.40807 20.6229 9.09975V10.7914H8.27246V9.09975ZM25.9825 29.8666C25.9825 31.0916 24.9921 32.0833 23.7688 32.0833H5.12659C3.9032 32.0833 2.91284 31.0916 2.91284 29.8666V15.9252C2.91284 14.7001 3.9032 13.7085 5.12659 13.7085H23.7688C24.9921 13.7085 25.9825 14.7001 25.9825 15.9252V29.8666ZM16.5449 22.4585C16.5449 23.6252 15.6128 24.5586 14.4477 24.5586C13.2825 24.5586 12.3504 23.6252 12.3504 22.4585C12.3504 21.2919 13.2825 20.3585 14.4477 20.3585C15.6128 20.3585 16.5449 21.2919 16.5449 22.4585Z" fill="#3259A6"/>
</svg>
