<svg width="185" height="185" viewBox="0 0 185 185" fill="none" xmlns="http://www.w3.org/2000/svg">
<g clip-path="url(#clip0_517_211)">
<path d="M179.861 71.9444H164.444V35.9722C164.444 34.6101 163.904 33.3024 162.94 32.3375L132.107 1.50412C131.142 0.540574 129.834 0 128.472 0H25.6944C22.8554 0 20.5556 2.29987 20.5556 5.13889V71.9444H5.13889C2.29987 71.9444 0 74.2443 0 77.0833V149.028C0 151.867 2.29987 154.167 5.13889 154.167H20.5556V179.861C20.5556 182.7 22.8554 185 25.6944 185H159.306C162.145 185 164.444 182.7 164.444 179.861V154.167H179.861C182.7 154.167 185 151.867 185 149.028V77.0833C185 74.2443 182.7 71.9444 179.861 71.9444ZM133.611 17.5456L146.898 30.833H133.611V17.5456ZM30.8333 10.2774H123.333V41.1107H154.167V71.9441H30.8333V10.2774ZM154.167 174.722H30.8333V154.166H154.167V174.722ZM174.722 143.889H10.2778V82.2219H174.722V143.889Z" fill="black"/>
<path d="M46.2499 118.194C51.9167 118.194 56.5277 122.805 56.5277 128.472V133.611H66.8055V128.472C66.8055 123.477 65.0146 118.891 62.041 115.325C64.946 112.97 66.8055 109.371 66.8055 105.347C66.8055 98.264 61.0415 92.5 53.9583 92.5H41.1111C38.272 92.5 35.9722 94.7999 35.9722 97.6389V133.611H46.2499V118.194ZM46.2499 102.778H53.9583C55.3749 102.778 56.5277 103.931 56.5277 105.347C56.5277 106.764 55.3749 107.917 53.9583 107.917H46.2499V102.778Z" fill="black"/>
<path d="M82.2226 123.333H87.3615C95.8627 123.333 102.778 116.418 102.778 107.917C102.778 99.4155 95.8627 92.5 87.3615 92.5H77.0837C74.2447 92.5 71.9448 94.7999 71.9448 97.6389V133.611H82.2226V123.333ZM82.2226 102.778H87.3615C90.1948 102.778 92.5004 105.083 92.5004 107.917C92.5004 110.75 90.1948 113.056 87.3615 113.056H82.2226V102.778Z" fill="black"/>
<path d="M118.195 110.046L124.838 116.689C126.844 118.698 130.1 118.698 132.105 116.689L138.748 110.046L138.749 133.611H149.027V97.6385C149.027 95.5608 147.775 93.6852 145.855 92.8894C143.937 92.0922 141.726 92.5338 140.256 94.0035L128.473 105.787L116.691 94.005C115.221 92.5353 113.007 92.0937 111.092 92.8909C109.17 93.6867 107.92 95.5592 107.92 97.6399L107.918 133.611H118.196V110.046H118.195Z" fill="black"/>
</g>
<defs>
<clipPath id="clip0_517_211">
<rect width="185" height="185" fill="white"/>
</clipPath>
</defs>
</svg>
