<svg width="32" height="32" viewBox="0 0 32 32" fill="none" xmlns="http://www.w3.org/2000/svg">
<path d="M25.6005 1H9.60191C7.90453 1 6.27705 1.67748 5.07658 2.88301C3.8765 4.08855 3.20246 5.7237 3.20246 7.42849V23.2376L0.941511 25.5088H0.941139C0.339258 26.1112 0.000744022 26.9296 1.22901e-06 27.783C-0.000742707 28.6361 0.336277 29.4549 0.937044 30.0583C1.53781 30.6618 2.35283 31.0007 3.20247 31H25.6005C27.2975 31 28.9254 30.3225 30.1255 29.117C31.3259 27.9115 32 26.2763 32 24.5715V7.42886C32 5.72416 31.326 4.08891 30.1255 2.88338C28.9254 1.67784 27.2976 1.00036 25.6005 1.00036L25.6005 1ZM28.8005 24.5711L28.8001 24.5715C28.8001 25.4239 28.4631 26.2415 27.863 26.8443C27.263 27.447 26.4491 27.7856 25.6006 27.7856H3.20249L6.4024 24.5711L6.40203 7.42847C6.40203 6.5761 6.73906 5.75849 7.33946 5.15573C7.93948 4.55298 8.75343 4.21443 9.60193 4.21443H25.6006C26.4491 4.21443 27.263 4.55299 27.863 5.15573C28.4631 5.75847 28.8001 6.57612 28.8001 7.42847L28.8005 24.5711Z" fill="black"/>
<path d="M14 12.4997C14 13.8804 12.8806 15 11.5 15C10.1194 15 9 13.8804 9 12.4997C9 11.119 10.1194 10 11.5 10C12.8806 10 14 11.1191 14 12.4997Z" fill="black"/>
<path d="M25 12.4997C25 13.8804 24.1048 15 23.0002 15C21.8953 15 21 13.8804 21 12.4997C21 11.119 21.8952 10 23.0002 10C24.1047 10 25 11.1191 25 12.4997Z" fill="black"/>
<path d="M18.0003 16C16.6742 16 15.4023 16.4743 14.4645 17.318C13.5271 18.1621 13 19.3067 13 20.5003V21.0004V21.0001C13 21.2655 13.117 21.5197 13.3255 21.7074C13.534 21.8947 13.8165 22 14.1114 22H21.889C22.1835 22 22.4664 21.8947 22.6745 21.7074C22.883 21.5197 23 21.2655 23 21.0001V20.5003C23 19.3068 22.4734 18.1621 21.5355 17.318C20.5981 16.4744 19.3262 16 18.0001 16L18.0003 16Z" fill="black"/>
</svg>
