<svg width="35" height="35" viewBox="0 0 35 35" fill="none" xmlns="http://www.w3.org/2000/svg">
<path d="M17.5 0C7.83535 0 0 7.83535 0 17.5C0 27.1646 7.83467 35 17.5 35C27.1646 35 35 27.1653 35 17.5C35 7.83535 27.1653 0 17.5 0V0ZM17.5 31.818C9.59237 31.818 3.182 25.4079 3.182 17.5C3.182 9.59238 9.59258 3.182 17.5 3.182C25.4074 3.182 31.818 9.59258 31.818 17.5C31.818 25.4076 25.4074 31.818 17.5 31.818ZM23.3974 21.1477C24.0187 21.769 24.0187 22.7763 23.3974 23.3977C23.0871 23.7077 22.6796 23.8632 22.2727 23.8632C21.8657 23.8635 21.4585 23.7082 21.148 23.3974L16.3753 18.6247C16.077 18.3267 15.9092 17.9221 15.9092 17.4997V7.9544C15.9092 7.07576 16.6216 6.36361 17.5 6.36361C18.3787 6.36361 19.0908 7.07603 19.0908 7.9544V16.8411L23.3974 21.1477Z" fill="black"/>
</svg>
