<svg width="37" height="37" viewBox="0 0 37 37" fill="none" xmlns="http://www.w3.org/2000/svg">
<g clip-path="url(#clip0_1570_292)">
<path fill-rule="evenodd" clip-rule="evenodd" d="M36.2847 32.8145L29.6731 26.2029C29.3222 25.8519 28.8024 25.7684 28.3711 25.9515L27.4001 24.9804C26.5539 24.1342 26.3921 22.8658 26.9991 21.8345C28.2655 19.6819 28.992 17.1737 28.992 14.4956C28.992 6.48991 22.5021 0 14.4964 0C6.49073 0 0 6.4895 0 14.4956C0 22.5017 6.48991 28.9912 14.4956 28.9912C17.1737 28.9912 19.6819 28.2647 21.8345 26.9987C22.8658 26.3921 24.1342 26.5535 24.9804 27.3997L25.9515 28.3707C25.768 28.8024 25.8519 29.3217 26.2029 29.6727L32.8145 36.2847C33.7688 37.239 35.33 37.239 36.2843 36.2847C37.2386 35.3304 37.2386 33.7692 36.2843 32.8149L36.2847 32.8145ZM14.4956 25.5697C8.37963 25.5697 3.42107 20.6116 3.42107 14.4956C3.42107 8.37963 8.37963 3.42107 14.4956 3.42107C20.6116 3.42107 25.5702 8.37922 25.5702 14.4956C25.5702 20.612 20.612 25.5697 14.4956 25.5697ZM14.4956 6.6693C10.1735 6.6693 6.66971 10.1731 6.66971 14.4952C6.66971 18.8173 10.1735 22.3211 14.4956 22.3211C18.8177 22.3211 22.3215 18.8173 22.3215 14.4952C22.3215 10.1731 18.8177 6.6693 14.4956 6.6693ZM14.4956 20.1001C13.7838 20.1001 13.2067 19.523 13.2067 18.8112C13.2067 18.0993 13.7838 17.5223 14.4956 17.5223C15.2074 17.5223 15.7845 18.0993 15.7845 18.8112C15.7845 19.523 15.2074 20.1001 14.4956 20.1001ZM15.8676 9.83153L15.4908 16.0245C15.4716 16.344 15.2074 16.5922 14.8876 16.5922H14.1033C13.7834 16.5922 13.5196 16.344 13.5 16.0245L13.1232 9.83153C13.1076 9.57801 13.1887 9.35439 13.3628 9.16927C13.5368 8.98455 13.7551 8.88994 14.0091 8.88994H14.9809C15.2349 8.88994 15.4532 8.98455 15.6272 9.16927C15.8013 9.35398 15.8824 9.57801 15.8668 9.83153H15.8676Z" fill="white"/>
</g>
<defs>
<clipPath id="clip0_1570_292">
<rect width="37" height="37" fill="white"/>
</clipPath>
</defs>
</svg>
