<svg width="35" height="25" viewBox="0 0 35 25" fill="none" xmlns="http://www.w3.org/2000/svg">
<path d="M20.5474 9.65506H24.1379ZM16.273 9.65506H19.8635ZM12.084 9.65506H15.6745ZM7.89509 9.65506H11.4001ZM3.62067 9.65506H7.21118ZM7.89509 5.43092H11.4001ZM12.084 5.43092H15.6745ZM16.273 5.43092H19.8635ZM16.273 1.20679H19.8635Z" fill="black"/>
<path fill-rule="evenodd" clip-rule="evenodd" d="M19.8635 3.17507H16.273V0H19.8635V3.17507ZM11.4001 7.01857H7.89509V3.8435H11.4001V7.01857ZM15.6745 7.01857H12.084V3.8435H15.6745V7.01857ZM19.8635 7.01857H16.273V3.8435H19.8635V7.01857ZM7.21118 10.8621H3.62067V7.687H7.21118V10.8621ZM11.4001 10.8621H7.89509V7.687H11.4001V10.8621ZM15.6745 10.8621H12.084V7.687H15.6745V10.8621ZM19.8635 10.8621H16.273V7.687H19.8635V10.8621ZM24.1379 10.8621H20.5474V7.687H24.1379V10.8621Z" fill="#6096FF"/>
<path d="M35 9.69794C35 9.69794 33.4463 8.2454 30.2524 8.75806C29.9072 6.28018 27.2313 4.82764 27.2313 4.82764C27.2313 4.82764 24.728 7.81818 26.5407 11.1505C26.0228 11.4068 25.1596 11.7486 23.8648 11.7486H0.126996C-0.304601 13.372 -0.3046 24.138 11.6075 24.138C20.1531 24.138 26.5407 20.2076 29.5619 13.0303C34.0505 13.372 35 9.69794 35 9.69794Z" fill="#6096FF"/>
</svg>
