<svg width="30" height="30" viewBox="0 0 30 30" fill="none" xmlns="http://www.w3.org/2000/svg">
<g clip-path="url(#clip0_1349_1860)">
<path d="M13.7109 10.9798C13.7553 10.9798 13.7553 11.0238 13.7553 11.0661C14.0179 11.3269 14.3658 11.4133 14.6727 11.3692C15.0223 11.3252 15.3276 11.1085 15.5015 10.8054C15.7198 10.4159 16.0251 10.0688 16.3303 9.89439C16.5929 9.72168 16.8982 9.67765 17.2035 9.72168C17.5087 9.7657 17.7713 9.93841 17.9453 10.1992C18.2949 10.719 18.1636 11.4556 17.5957 11.8027C17.333 11.9754 16.8539 12.1498 16.4173 12.1921C16.0677 12.2362 15.7624 12.4089 15.5885 12.712C15.4146 13.0151 15.3702 13.3622 15.5015 13.7093C15.5015 13.7533 15.5459 13.7533 15.5885 13.7957L18.1636 17.6969C18.3375 17.9577 18.6871 18.044 18.9497 17.8696L22.7919 15.3551C22.8362 15.9613 23.0545 16.5692 23.3598 17.0027C23.7094 17.5225 24.1886 17.8696 24.8008 17.956C24.9748 18 25.1061 18 25.2817 18C25.7183 18 26.1549 17.8696 26.5471 17.6106C27.5942 16.9163 27.9011 15.5295 27.2019 14.4458C26.9393 14.0124 26.4601 13.5789 25.8922 13.2758L29.7344 10.7613C29.997 10.5886 30.084 10.2415 29.9083 9.98073L24.0129 1.22674C23.1841 -0.0296413 21.4378 -0.376766 20.1707 0.446139L11.2656 6.25381C11.003 6.42653 10.916 6.77363 11.0917 7.03441L13.7109 10.9798Z" fill="#6096FF"/>
<path d="M14.2556 24.1075C14.2251 24.0769 14.2556 24.0463 14.285 24.0169C14.285 23.6548 14.1051 23.3549 13.8629 23.1738C13.5912 22.9633 13.2303 22.9034 12.8998 22.9939C12.4789 23.1139 12.0274 23.1444 11.6957 23.0551C11.3947 22.994 11.1537 22.814 10.9738 22.573C10.7939 22.3319 10.7327 22.0309 10.7939 21.7299C10.9138 21.1279 11.5158 20.7069 12.1485 20.8574C12.4495 20.9185 12.901 21.1278 13.2314 21.3995C13.5031 21.61 13.8335 21.7005 14.1639 21.6099C14.4943 21.5194 14.7659 21.3089 14.9165 20.9773C14.947 20.9467 14.9165 20.9162 14.9165 20.8574L15.8501 16.3726C15.9113 16.0716 15.7302 15.7706 15.428 15.7106L11.0325 14.8075C11.4229 14.356 11.6946 13.7833 11.7851 13.2718C11.905 12.6698 11.8157 12.0983 11.4535 11.6162C11.3641 11.4657 11.2736 11.3752 11.1525 11.254C10.8514 10.953 10.4599 10.7425 10.0095 10.652C8.80543 10.4121 7.63072 11.1635 7.36028 12.3982C7.24034 12.8803 7.26973 13.5117 7.45083 14.1138L3.05541 13.2107C2.75439 13.1495 2.45337 13.3306 2.39339 13.6328L0.379243 23.777C0.0782197 25.221 1.04125 26.6661 2.48641 26.9683L12.6598 29.0755C12.9608 29.1366 13.2618 28.9556 13.3218 28.6533L14.2556 24.1075Z" fill="#3259A6"/>
</g>
<defs>
<clipPath id="clip0_1349_1860">
<rect width="30" height="30" fill="white"/>
</clipPath>
</defs>
</svg>
