<svg width="37" height="37" viewBox="0 0 37 37" fill="none" xmlns="http://www.w3.org/2000/svg">
<g clip-path="url(#clip0_1570_262)">
<path d="M30.7461 5.29108L19.9313 1.20909C19.5996 1.07126 19.2441 1 18.8848 1C18.5254 1 18.1699 1.07125 17.8382 1.20909L6.74433 5.95382C6.22688 6.17809 5.78652 6.54836 5.47657 7.01915C5.16664 7.49027 5.00117 8.04161 5 8.60537V19.0713C5.02141 21.8914 5.77131 24.6585 7.1773 27.1033C8.58292 29.5484 10.597 31.5886 13.0238 33.0254L17.524 35.6071C17.9698 35.8645 18.4748 36 18.9895 36C19.5038 36 20.0092 35.8645 20.4546 35.6071L24.7807 32.9907C27.1893 31.5399 29.1858 29.4951 30.5786 27.0514C31.9714 24.6082 32.7138 21.8485 32.7345 19.0362V8.18654C32.7606 7.55383 32.5807 6.93014 32.2221 6.40794C31.8635 5.88581 31.3457 5.49392 30.7461 5.29108ZM26.3506 13.6985L18.5008 24.7225C18.3649 24.9094 18.1928 25.0671 17.9954 25.187C17.7976 25.3066 17.578 25.386 17.3495 25.4203H17.1054C16.7269 25.4284 16.357 25.305 16.0588 25.0714L11.6283 21.5828C11.4473 21.4516 11.2942 21.2857 11.1786 21.0945C11.0626 20.9037 10.9863 20.6911 10.9539 20.47C10.9212 20.2492 10.9333 20.0238 10.9894 19.8073C11.0451 19.5912 11.144 19.388 11.2794 19.2104C11.4138 19.0282 11.5828 18.8748 11.7771 18.7584C11.971 18.6424 12.1863 18.5657 12.4102 18.5329C12.634 18.5006 12.8622 18.5131 13.0814 18.5695C13.3006 18.6256 13.5062 18.7253 13.6865 18.8616L16.7219 21.1643L23.5594 11.6749C23.6902 11.4919 23.8553 11.3362 24.0461 11.2166C24.2368 11.0975 24.4494 11.0169 24.671 10.9795C24.8929 10.9421 25.1199 10.9491 25.3395 10.9998C25.5587 11.05 25.7658 11.1434 25.9492 11.2739C26.1326 11.4043 26.288 11.5698 26.4075 11.7605C26.5266 11.9513 26.6072 12.1639 26.6446 12.3855C26.682 12.6074 26.675 12.8348 26.6248 13.054C26.5741 13.2732 26.4811 13.4803 26.3507 13.6637L26.3506 13.6985Z" fill="white"/>
</g>
<defs>
<clipPath id="clip0_1570_262">
<rect width="28" height="35" fill="white" transform="translate(5 1)"/>
</clipPath>
</defs>
</svg>
