<svg width="43" height="32" viewBox="0 0 43 32" fill="none" xmlns="http://www.w3.org/2000/svg">
<g clip-path="url(#clip0_728_2007)">
<path d="M18.0586 0V5.39062C15.2435 5.39062 12.623 6.30404 10.1973 8.13086C7.77148 9.92773 6.55859 12.084 6.55859 14.5996C6.55859 16.097 7.15755 16.8457 8.35547 16.8457C8.625 16.8457 9.16406 16.7409 9.97266 16.5312C10.8112 16.3516 11.485 16.2617 11.9941 16.2617C13.6413 16.2617 15.1836 16.9355 16.6211 18.2832C18.0885 19.6009 18.8223 21.4277 18.8223 23.7637C18.8223 26.0397 18.0736 28.0013 16.5762 29.6484C15.0788 31.2656 13.0273 32.0742 10.4219 32.0742C7.30729 32.0742 4.79167 30.9062 2.875 28.5703C0.958333 26.2044 0 22.9251 0 18.7324C0 12.9525 1.75195 8.43034 5.25586 5.16602C8.78971 1.87174 13.0573 0.14974 18.0586 0ZM42.7207 0V5.39062C40.0553 5.39062 37.4648 6.28906 34.9492 8.08594C32.4635 9.85286 31.2207 12.0241 31.2207 14.5996C31.2207 16.097 31.8197 16.8457 33.0176 16.8457C33.2871 16.8457 33.8262 16.7409 34.6348 16.5312C35.4733 16.3516 36.1471 16.2617 36.6562 16.2617C38.3932 16.2617 39.9655 16.9505 41.373 18.3281C42.7806 19.7057 43.4844 21.5176 43.4844 23.7637C43.4844 26.0397 42.7357 28.0013 41.2383 29.6484C39.7409 31.2656 37.6895 32.0742 35.084 32.0742C31.9694 32.0742 29.4538 30.9062 27.5371 28.5703C25.6204 26.2044 24.6621 22.9251 24.6621 18.7324C24.6621 12.9525 26.4141 8.43034 29.918 5.16602C33.4518 1.87174 37.7194 0.14974 42.7207 0Z" fill="#CCCCCC"/>
</g>
<defs>
<clipPath id="clip0_728_2007">
<rect width="43" height="32" fill="white"/>
</clipPath>
</defs>
</svg>
