<svg width="185" height="185" viewBox="0 0 185 185" fill="none" xmlns="http://www.w3.org/2000/svg">
<g clip-path="url(#clip0_517_120)">
<path d="M179.861 71.9444H164.444V35.9722C164.444 34.6101 163.902 33.3024 162.94 32.3375L132.107 1.50412C131.142 0.540574 129.834 0 128.472 0H25.6944C22.8554 0 20.5556 2.29987 20.5556 5.13889V71.9444H5.13889C2.29987 71.9444 0 74.2443 0 77.0833V149.028C0 151.867 2.29987 154.167 5.13889 154.167H20.5556V179.861C20.5556 182.7 22.8554 185 25.6944 185H159.306C162.145 185 164.444 182.7 164.444 179.861V154.167H179.861C182.7 154.167 185 151.867 185 149.028V77.0833C185 74.2443 182.7 71.9444 179.861 71.9444ZM133.611 17.5456L146.898 30.8344H133.611V17.5456ZM30.8333 10.2789H123.333V41.1122H154.167V71.9455H30.8333V10.2789ZM154.167 174.723H30.8333V154.168H154.167V174.723ZM174.722 143.89H10.2778V82.2233H174.722V143.89Z" fill="black"/>
<path d="M71.9451 118.194V107.917C71.9451 99.4155 65.0297 92.5 56.5285 92.5H41.1118V133.611H56.5285C65.0297 133.611 71.9451 126.696 71.9451 118.194ZM51.3896 102.778H56.5285C59.3632 102.778 61.6674 105.083 61.6674 107.917V118.194C61.6674 121.028 59.3632 123.333 56.5285 123.333H51.3896V102.778Z" fill="black"/>
<path d="M82.2224 133.611H107.917V123.333H87.3613V118.194H102.778V107.917H87.3613V102.778H107.917V92.5H82.2224C79.3834 92.5 77.0835 94.7999 77.0835 97.6389V128.472C77.0835 131.311 79.3834 133.611 82.2224 133.611Z" fill="black"/>
<path d="M143.889 120.764C143.889 117.869 142.917 115.206 141.295 113.056C142.917 110.905 143.889 108.242 143.889 105.347C143.889 98.264 138.125 92.5 131.042 92.5H113.056V133.611H131.042C138.125 133.611 143.889 127.847 143.889 120.764ZM123.333 102.778H131.042C132.458 102.778 133.611 103.931 133.611 105.347C133.611 106.764 132.458 107.917 131.042 107.917H123.333V102.778ZM123.333 118.194H131.042C132.458 118.194 133.611 119.347 133.611 120.764C133.611 122.181 132.458 123.333 131.042 123.333H123.333V118.194Z" fill="black"/>
</g>
<defs>
<clipPath id="clip0_517_120">
<rect width="185" height="185" fill="white"/>
</clipPath>
</defs>
</svg>
