<svg width="37" height="37" viewBox="0 0 37 37" fill="none" xmlns="http://www.w3.org/2000/svg">
<path fill-rule="evenodd" clip-rule="evenodd" d="M18.4997 23.6113H10.2776C9.1471 23.6113 8.22211 24.5363 8.22211 25.6668C8.22211 26.7974 9.1471 27.7224 10.2776 27.7224H18.4997C19.6303 27.7224 20.5553 26.7974 20.5553 25.6668C20.5553 24.5363 19.6303 23.6113 18.4997 23.6113ZM16.4442 15.3892H10.2776C9.1471 15.3892 8.22211 16.3142 8.22211 17.4447C8.22211 18.5753 9.1471 19.5003 10.2776 19.5003H16.4442C17.5748 19.5003 18.4997 18.5753 18.4997 17.4447C18.4997 16.3142 17.5748 15.3892 16.4442 15.3892ZM16.4442 7.1671H5.13882C2.30013 7.1671 0 9.46723 0 12.3059V30.8057C0 33.6443 2.30013 35.9445 5.13882 35.9445H23.6386C26.4772 35.9445 28.7774 33.6443 28.7774 30.8057V21.5558C28.7774 20.4211 27.8565 19.5003 26.7219 19.5003C25.5872 19.5003 24.6663 20.4211 24.6663 21.5558V30.8057C24.6663 31.373 24.2059 31.8334 23.6386 31.8334H5.13882C4.57149 31.8334 4.11105 31.373 4.11105 30.8057V12.3059C4.11105 11.7386 4.57149 11.2781 5.13882 11.2781H16.4442C17.5789 11.2781 18.4997 10.3573 18.4997 9.22262C18.4997 8.08797 17.5789 7.1671 16.4442 7.1671ZM36.3972 1.60278C35.5935 0.799072 34.2944 0.799072 33.4907 1.60278L29.8051 5.28834L26.1196 1.60278C25.3159 0.799072 24.0168 0.799072 23.2131 1.60278C22.4094 2.40649 22.4094 3.70764 23.2131 4.5093L26.8986 8.19486L23.2131 11.8804C22.4094 12.6841 22.4094 13.9832 23.2131 14.7869C23.6139 15.1878 24.1401 15.3892 24.6663 15.3892C25.1925 15.3892 25.7188 15.1878 26.1196 14.7869L29.8051 11.1014L33.4907 14.7869C33.8915 15.1878 34.4177 15.3892 34.944 15.3892C35.4702 15.3892 35.9964 15.1878 36.3972 14.7869C37.2009 13.9832 37.2009 12.6841 36.3972 11.8804L32.7117 8.19486L36.3972 4.5093C37.2009 3.70764 37.2009 2.40649 36.3972 1.60278Z" fill="white"/>
</svg>
