<svg width="33" height="25" viewBox="0 0 33 25" fill="none" xmlns="http://www.w3.org/2000/svg">
<path d="M27.9422 2.09371C25.775 1.10151 23.4871 0.397618 21.137 0C20.8154 0.574897 20.5244 1.16639 20.2652 1.772C17.7619 1.39477 15.2162 1.39477 12.7128 1.772C12.4535 1.16645 12.1626 0.574966 11.8411 0C9.48948 0.400976 7.20009 1.10654 5.03071 2.0989C0.723945 8.47084 -0.443552 14.6845 0.140197 20.81C2.66235 22.6735 5.48535 24.0907 8.4865 25C9.16227 24.0911 9.76024 23.1269 10.2741 22.1176C9.29813 21.7531 8.35617 21.3034 7.4591 20.7737C7.6952 20.6024 7.9261 20.426 8.14922 20.2548C10.7595 21.4823 13.6084 22.1188 16.4929 22.1188C19.3774 22.1188 22.2264 21.4823 24.8366 20.2548C25.0624 20.439 25.2933 20.6154 25.5268 20.7737C24.628 21.3042 23.6843 21.7548 22.7066 22.1202C23.2198 23.129 23.8178 24.0924 24.4942 25C27.4979 24.0943 30.3231 22.6778 32.8457 20.8126V20.8126C33.5306 13.709 31.6756 7.55241 27.9422 2.09371ZM11.0135 17.0429C9.38677 17.0429 8.04285 15.5666 8.04285 13.7505C8.04285 11.9344 9.34007 10.4452 11.0083 10.4452C12.6765 10.4452 14.0101 11.9344 13.9815 13.7505C13.953 15.5666 12.6713 17.0429 11.0135 17.0429ZM21.9724 17.0429C20.3431 17.0429 19.0043 15.5666 19.0043 13.7505C19.0043 11.9344 20.3016 10.4452 21.9724 10.4452C23.6432 10.4452 24.9664 11.9344 24.9378 13.7505C24.9093 15.5666 23.6302 17.0429 21.9724 17.0429Z" fill="white"/>
</svg>
