<svg width="35" height="23" viewBox="0 0 35 23" fill="none" xmlns="http://www.w3.org/2000/svg">
<path d="M34.9771 21.2692C34.0994 21.2692 33.7086 20.503 33.4498 19.9961C33.3651 19.8302 33.2279 19.5617 33.1384 19.4784C33.0481 19.5615 32.9109 19.8302 32.8267 19.9961C32.568 20.503 32.1768 21.2692 31.2999 21.2692C30.4225 21.2692 30.0316 20.503 29.7731 19.9961C29.6889 19.8302 29.552 19.5626 29.4625 19.4784C29.3722 19.5623 29.2356 19.8302 29.1511 19.9961C28.8929 20.503 28.5015 21.2692 27.6246 21.2692C26.7472 21.2692 26.3563 20.503 26.0978 19.9961C26.0136 19.8302 25.8773 19.5629 25.7872 19.4789C25.6972 19.5629 25.5611 19.8302 25.4766 19.9961C25.2185 20.503 24.8276 21.2692 23.9507 21.2692C23.0739 21.2692 22.6829 20.503 22.4248 19.9961C22.3328 19.8152 22.1786 19.513 22.0902 19.4608C22.0958 19.4636 22.1078 19.4675 22.1142 19.4675V18.103C22.991 18.103 23.382 18.8692 23.6401 19.3764C23.7243 19.5414 23.8606 19.8093 23.9507 19.8933C24.0408 19.8093 24.1768 19.5414 24.2613 19.3764C24.5195 18.8692 24.9104 18.103 25.7872 18.103C26.6646 18.103 27.055 18.8692 27.3137 19.3761C27.3985 19.5417 27.5351 19.8096 27.6246 19.8938C27.7147 19.8099 27.8513 19.5417 27.936 19.3761C28.1942 18.8692 28.5851 18.103 29.4625 18.103C30.3394 18.103 30.7303 18.8692 30.989 19.3761C31.0738 19.542 31.2104 19.8096 31.2999 19.8938C31.3902 19.8102 31.5269 19.5417 31.6113 19.3761C31.8701 18.8689 32.261 18.103 33.1386 18.103C34.016 18.103 34.4064 18.8689 34.6654 19.3761C34.7574 19.5567 34.9122 19.8592 35 19.9114C34.9944 19.9083 34.9827 19.9047 34.9768 19.9047L34.9771 21.2692Z" fill="black"/>
<path d="M12.8858 4.69369C12.0084 4.69369 11.6175 3.92784 11.3591 3.42093C11.2743 3.25504 11.1371 2.98655 11.0474 2.90318C10.9573 2.98627 10.8204 3.25504 10.7356 3.42093C10.4775 3.92781 10.086 4.69369 9.20886 4.69369C8.33202 4.69369 7.94109 3.92784 7.68293 3.42093C7.59817 3.25504 7.46155 2.98738 7.3715 2.90318C7.28145 2.98711 7.14538 3.25504 7.06062 3.42093C6.80189 3.92781 6.411 4.69369 5.53384 4.69369C4.657 4.69369 4.26608 3.92784 4.00791 3.42065C3.92371 3.25503 3.78653 2.98766 3.69704 2.90373C3.6067 2.98766 3.47092 3.25503 3.38644 3.42065C3.12771 3.9278 2.73737 4.69369 1.85994 4.69369C0.983099 4.69369 0.592464 3.92784 0.334014 3.42065C0.242005 3.23998 0.0878271 2.93775 0 2.88533C0.00557611 2.8884 0.0175645 2.89202 0.0239776 2.89258L0.0236988 1.5281C0.900542 1.5281 1.29203 2.29424 1.5502 2.80115C1.6344 2.96676 1.77073 3.23414 1.86024 3.31806C1.95057 3.23414 2.08635 2.96676 2.17083 2.80115C2.42957 2.29427 2.82046 1.5281 3.69733 1.5281C4.57418 1.5281 4.9651 2.29424 5.22326 2.80115C5.30802 2.96704 5.44464 3.2347 5.53413 3.31834C5.62447 3.2347 5.76109 2.96704 5.84557 2.80115C6.1043 2.29399 6.49519 1.5281 7.37235 1.5281C8.24919 1.5281 8.64012 2.29424 8.89828 2.80115C8.98304 2.96704 9.11966 3.2347 9.20971 3.31834C9.30004 3.2347 9.43638 2.96704 9.52114 2.80059C9.77988 2.29372 10.1708 1.52783 11.0479 1.52783C11.9253 1.52783 12.3165 2.29369 12.5747 2.80059C12.667 2.98154 12.8217 3.28432 12.9096 3.33618C12.9043 3.33312 12.8923 3.32949 12.8859 3.32949L12.8858 4.69369Z" fill="black"/>
<path d="M0.0205078 7.90918H34.9772V14.1322H0.0205078V7.90918Z" fill="#3259A6"/>
<path d="M14.975 0H34.9778V6.22305H14.975V0Z" fill="#3259A6"/>
<path d="M0.0119019 15.8318H20.0148V22.0548H0.0119019V15.8318Z" fill="#3259A6"/>
</svg>
