<svg width="32" height="32" viewBox="0 0 32 32" fill="none" xmlns="http://www.w3.org/2000/svg">
<rect width="32" height="32" fill="white"/>
<path d="M15.1318 2.05717C22.0452 2.66837 27.4747 8.47605 27.7445 15.4383H30.8807C31.7575 15.4383 32.2971 16.4231 31.825 17.1703L25.9233 26.7477C25.4848 27.461 24.4733 27.461 24.0349 26.7477L18.0657 17.1703C17.5935 16.4232 18.1332 15.4383 19.0099 15.4383H22.1125V15.4044C21.8427 11.1928 18.3692 7.79628 14.1874 7.66104C9.29729 7.49118 5.28433 11.6007 5.62157 16.5592C5.85775 20.1932 9.09513 23.7252 12.7036 24.2346C13.6142 24.3704 14.4909 24.3365 15.334 24.2008C15.7725 24.1328 16.2446 24.3026 16.4806 24.7101L18.3355 27.8685C18.7064 28.4797 18.403 29.261 17.7286 29.4647C16.2785 29.8722 14.7271 30.0759 13.1421 29.974C6.29617 29.6007 0.664284 24.1328 0.0572544 17.2727C-0.718575 8.54443 6.49851 1.2765 15.1318 2.05763V2.05717Z" fill="#6096FF"/>
</svg>
