<svg width="31" height="28" viewBox="0 0 31 28" fill="none" xmlns="http://www.w3.org/2000/svg">
<line x1="20" y1="6" x2="10" y2="6" stroke="#3259A6" stroke-width="2"/>
<line x1="17" y1="11" x2="10" y2="11" stroke="#3259A6" stroke-width="2"/>
<line x1="22" y1="16" x2="10" y2="16" stroke="#3259A6" stroke-width="2"/>
<line x1="19" y1="21" x2="10" y2="21" stroke="#3259A6" stroke-width="2"/>
<path d="M6.35999 27.9C5.19999 27.9 4.33999 27.61 3.77999 27.03C3.23999 26.47 2.96999 25.59 2.96999 24.39V18C2.96999 17.14 2.82999 16.5 2.54999 16.08C2.28999 15.64 1.86999 15.38 1.28999 15.3C1.08999 15.28 0.98999 15.17 0.98999 14.97V13.26C0.98999 13.06 1.08999 12.95 1.28999 12.93C1.86999 12.85 2.28999 12.6 2.54999 12.18C2.82999 11.74 2.96999 11.1 2.96999 10.26V4.01998C2.96999 2.81998 3.23999 1.92998 3.77999 1.34998C4.33999 0.769981 5.19999 0.47998 6.35999 0.47998H8.54999C8.74999 0.47998 8.84999 0.579981 8.84999 0.779981V2.69998C8.84999 2.89998 8.74999 2.99998 8.54999 2.99998H7.52999C6.40999 2.99998 5.84999 3.69998 5.84999 5.09998V10.56C5.84999 11.5 5.71999 12.25 5.45999 12.81C5.21999 13.35 4.81999 13.76 4.25999 14.04C4.15999 14.08 4.15999 14.13 4.25999 14.19C4.81999 14.45 5.21999 14.86 5.45999 15.42C5.71999 15.98 5.84999 16.73 5.84999 17.67V23.28C5.84999 24.7 6.40999 25.41 7.52999 25.41H8.54999C8.74999 25.41 8.84999 25.51 8.84999 25.71V27.6C8.84999 27.8 8.74999 27.9 8.54999 27.9H6.35999Z" fill="#6096FF"/>
<path d="M22.9169 27.9C22.7169 27.9 22.6169 27.8 22.6169 27.6V25.71C22.6169 25.51 22.7169 25.41 22.9169 25.41H23.9669C24.5069 25.41 24.9169 25.23 25.1969 24.87C25.4969 24.51 25.6469 23.98 25.6469 23.28V17.67C25.6469 16.73 25.7669 15.98 26.0069 15.42C26.2669 14.86 26.6769 14.45 27.2369 14.19C27.3369 14.13 27.3369 14.08 27.2369 14.04C26.6769 13.76 26.2669 13.35 26.0069 12.81C25.7669 12.25 25.6469 11.5 25.6469 10.56V5.09998C25.6469 3.69998 25.0869 2.99998 23.9669 2.99998H22.9169C22.7169 2.99998 22.6169 2.89998 22.6169 2.69998V0.779981C22.6169 0.579981 22.7169 0.47998 22.9169 0.47998H25.1369C26.2769 0.47998 27.1269 0.769981 27.6869 1.34998C28.2469 1.92998 28.5269 2.81998 28.5269 4.01998V10.26C28.5269 11.12 28.6569 11.76 28.9169 12.18C29.1769 12.6 29.5969 12.85 30.1769 12.93C30.3769 12.95 30.4769 13.06 30.4769 13.26V14.97C30.4769 15.17 30.3769 15.28 30.1769 15.3C29.6169 15.38 29.1969 15.64 28.9169 16.08C28.6569 16.5 28.5269 17.14 28.5269 18V24.39C28.5269 25.59 28.2469 26.47 27.6869 27.03C27.1269 27.61 26.2769 27.9 25.1369 27.9H22.9169Z" fill="#6096FF"/>
</svg>
