<svg width="29" height="32" viewBox="0 0 29 32" fill="none" xmlns="http://www.w3.org/2000/svg">
<path d="M28.3414 22.8029L26.7581 18.1539C26.3539 16.9747 25.4779 15.9643 24.3661 15.3914L20.4582 13.4375C18.9759 15.1893 16.7525 16.3347 14.2597 16.3347C11.7667 16.3347 9.54349 15.223 8.0611 13.4375L4.15349 15.3916C3.04179 15.9643 2.16596 16.9414 1.76153 18.1542L0.178439 22.8029C-0.461691 24.6894 0.683662 26.7108 2.60397 27.1485L4.99593 27.6876L4.0191 21.7922C3.88445 21.0174 4.12014 20.2089 4.62536 19.6026C5.13058 18.9964 5.87175 18.6594 6.68032 18.6594H21.8736C22.6483 18.6594 23.4233 18.9963 23.9285 19.6026C24.4337 20.2089 24.6696 21.0175 24.5348 21.7922L23.5579 27.6876L25.9499 27.1485C27.8361 26.6769 28.9815 24.6894 28.3414 22.8029V22.8029Z" fill="#3259A6"/>
<path d="M7.89307 8.08154V8.21619C7.89307 11.7196 10.7567 14.5495 14.2601 14.5495C17.7635 14.5495 20.6271 11.7198 20.6271 8.21619V8.08154C18.8081 8.28363 16.5846 8.38468 14.2601 8.38468C11.9356 8.38492 9.71209 8.28387 7.89307 8.08154Z" fill="#3259A6"/>
<path d="M14.26 6.63296C19.6502 6.63296 24.0295 6.0939 24.0295 5.38657C24.0295 5.01599 22.6821 4.67901 20.5933 4.44331L19.6503 1.04071C19.4482 0.265954 18.6396 -0.172049 17.8984 0.0638868L14.6643 1.04071C14.3947 1.10816 14.1252 1.10816 13.8557 1.04071L10.6216 0.0638868C9.84704 -0.172043 9.07227 0.265978 8.86997 1.04071L7.92671 4.47694C5.80455 4.71263 4.49072 5.0496 4.49072 5.4202C4.49072 6.0939 8.86997 6.63296 14.2602 6.63296H14.26Z" fill="#3259A6"/>
<path d="M21.8395 20.3774H6.67994C6.07368 20.3774 5.63568 20.9165 5.73668 21.4891L7.35364 31.1913C7.42108 31.6629 7.82526 31.9998 8.2969 31.9998H20.2224C20.694 31.9998 21.0982 31.6628 21.1657 31.1913L22.7826 21.4891C22.9177 20.9165 22.4459 20.3774 21.8396 20.3774H21.8395ZM14.2597 27.3845C13.6196 27.3845 13.0805 26.8455 13.0805 26.2053C13.0805 25.5652 13.6196 25.0261 14.2597 25.0261C14.8999 25.0261 15.4389 25.5652 15.4389 26.2053C15.4389 26.8455 14.8999 27.3845 14.2597 27.3845Z" fill="#6096FF"/>
</svg>
