<svg width="32" height="32" viewBox="0 0 32 32" fill="none" xmlns="http://www.w3.org/2000/svg">
<rect width="32" height="32" fill="white"/>
<path d="M1.92177 7.7474C1.92177 7.1572 2.14304 6.60404 2.5673 6.17977L6.90113 1.84594C7.41749 1.36637 8.0814 1.10819 8.78223 1.10817L27.5126 1.10817C29.2646 1.12658 30.6846 2.4728 30.6847 4.16956L30.6847 11.3619C30.6847 12.1733 30.3342 12.9295 29.7995 13.4642C29.2278 14.0359 28.4164 14.4048 27.5312 14.4047H8.80076C8.0999 14.4047 7.436 14.1465 6.90128 13.6486L2.56732 9.31486C2.14319 8.89073 1.92177 8.3376 1.92177 7.7474ZM8.91129 10.4952C9.66743 10.5137 10.3497 10.2001 10.8477 9.7021C11.3456 9.20414 11.659 8.52183 11.6407 7.7657C11.6593 6.27195 10.4236 5.03621 8.91139 5.03635C7.41763 5.0178 6.18189 6.25354 6.18203 7.76571C6.16335 9.25959 7.39899 10.4952 8.91129 10.4952Z" stroke="#6096FF" stroke-width="2"/>
<path d="M1.92177 23.7669C1.92177 23.1767 2.14304 22.6236 2.5673 22.1993L6.90113 17.8655C7.41749 17.3859 8.0814 17.1277 8.78223 17.1277L27.5126 17.1277C29.2646 17.1461 30.6846 18.4923 30.6847 20.1891L30.6847 27.3814C30.6847 28.1928 30.3342 28.949 29.7995 29.4837C29.2278 30.0554 28.4164 30.4243 27.5312 30.4242H8.80076C8.0999 30.4242 7.436 30.1661 6.90128 29.6681L2.56732 25.3344C2.14319 24.9103 1.92177 24.3571 1.92177 23.7669ZM8.91129 26.5147C9.66743 26.5332 10.3497 26.2196 10.8477 25.7216C11.3456 25.2237 11.659 24.5414 11.6407 23.7852C11.6593 22.2915 10.4236 21.0557 8.91139 21.0559C7.41763 21.0373 6.18189 22.2731 6.18203 23.7852C6.16335 25.2791 7.39899 26.5147 8.91129 26.5147Z" stroke="#3259A6" stroke-width="2"/>
</svg>
