<svg width="28" height="35" viewBox="0 0 28 35" fill="none" xmlns="http://www.w3.org/2000/svg">
<path d="M25.7461 4.29108L14.9313 0.209089C14.5996 0.0712579 14.2441 0 13.8848 0C13.5254 0 13.1699 0.0712519 12.8382 0.209089L1.74433 4.95382C1.22688 5.17809 0.786516 5.54836 0.476567 6.01915C0.166637 6.49027 0.0011662 7.04161 0 7.60537V18.0713C0.0214142 20.8914 0.771315 23.6585 2.1773 26.1033C3.58292 28.5484 5.59705 30.5886 8.02384 32.0254L12.524 34.6071C12.9698 34.8645 13.4748 35 13.9895 35C14.5038 35 15.0092 34.8645 15.4546 34.6071L19.7807 31.9907C22.1893 30.5399 24.1858 28.4951 25.5786 26.0514C26.9714 23.6082 27.7138 20.8485 27.7345 18.0362V7.18654C27.7606 6.55383 27.5807 5.93014 27.2221 5.40794C26.8635 4.88581 26.3456 4.49412 25.746 4.29128L25.7461 4.29108ZM21.3506 12.6985L13.5008 23.7225C13.3649 23.9094 13.1928 24.0671 12.9954 24.187C12.7976 24.3066 12.578 24.386 12.3495 24.4203H12.1054C11.7269 24.4284 11.357 24.305 11.0588 24.0714L6.62831 20.5828C6.44726 20.4516 6.29424 20.2857 6.1786 20.0945C6.06257 19.9037 5.98626 19.6911 5.95395 19.47C5.92124 19.2492 5.93331 19.0238 5.98938 18.8073C6.04506 18.5912 6.14396 18.388 6.27945 18.2104C6.41379 18.0282 6.58276 17.8748 6.77705 17.7584C6.97095 17.6424 7.18627 17.5657 7.41015 17.5329C7.63403 17.5006 7.86219 17.5131 8.0814 17.5695C8.3006 17.6256 8.50618 17.7253 8.68646 17.8616L11.7219 20.1643L18.5594 10.6749C18.6902 10.4919 18.8553 10.3362 19.0461 10.2166C19.2368 10.0975 19.4494 10.0169 19.671 9.9795C19.8929 9.94212 20.1199 9.94913 20.3395 9.99975C20.5587 10.05 20.7658 10.1434 20.9492 10.2739C21.1326 10.4043 21.288 10.5698 21.4075 10.7605C21.5266 10.9513 21.6072 11.1639 21.6446 11.3855C21.682 11.6074 21.675 11.8348 21.6248 12.054C21.5741 12.2732 21.4811 12.4803 21.3507 12.6637L21.3506 12.6985Z" fill="#6096FF"/>
</svg>
