<svg width="353" height="246" viewBox="0 0 353 246" fill="none" xmlns="http://www.w3.org/2000/svg">
<g clip-path="url(#clip0_517_316)">
<path d="M229.471 111H271.471ZM179.471 111H221.471ZM130.471 111H172.471ZM81.4712 111H122.471ZM31.4712 111H73.4712ZM81.4712 65H122.471ZM130.471 65H172.471ZM179.471 65H221.471ZM179.471 19H221.471Z" fill="black"/>
<path fill-rule="evenodd" clip-rule="evenodd" d="M192.811 33.0825H156.247V0H192.811V33.0825ZM106.623 73.1297H70.9285V40.0472H106.623V73.1297ZM150.152 73.1297H113.588V40.0472H150.152V73.1297ZM192.811 73.1297H156.247V40.0472H192.811V73.1297ZM63.9638 113.177H27.3989V80.0945H63.9638V113.177ZM106.623 113.177H70.9285V80.0945H106.623V113.177ZM150.152 113.177H113.588V80.0945H150.152V113.177ZM192.811 113.177H156.247V80.0945H192.811V113.177ZM236.341 113.177H199.776V80.0945H236.341V113.177Z" fill="#066DA5"/>
<path d="M353 98.3769C353 98.3769 337.329 83.5769 305.117 88.8004C301.635 63.5532 274.647 48.7532 274.647 48.7532C274.647 48.7532 249.4 79.2239 267.682 113.177C262.458 115.789 253.753 119.271 240.694 119.271H1.28084C-3.07212 135.812 -3.07211 245.507 117.07 245.507C203.258 245.507 267.682 205.46 298.153 132.33C343.423 135.812 353 98.3769 353 98.3769Z" fill="#066DA5"/>
</g>
<defs>
<clipPath id="clip0_517_316">
<rect width="353" height="245.51" fill="white"/>
</clipPath>
</defs>
</svg>
