<svg width="348" height="61" viewBox="0 0 348 61" fill="none" xmlns="http://www.w3.org/2000/svg">
<path fill-rule="evenodd" clip-rule="evenodd" d="M40.5 14H18.5C15.4625 14 13 16.4624 13 19.5V41.5C13 44.5376 15.4625 47 18.5 47H40.5C43.5376 47 46 44.5376 46 41.5V19.5C46 16.4624 43.5376 14 40.5 14ZM18.5 10.3333C13.4374 10.3333 9.33337 14.4374 9.33337 19.5V41.5C9.33337 46.5626 13.4374 50.6667 18.5 50.6667H40.5C45.5626 50.6667 49.6667 46.5626 49.6667 41.5V19.5C49.6667 14.4374 45.5626 10.3333 40.5 10.3333H18.5Z" fill="#6096FF"/>
<path d="M20.3334 25C20.3334 22.975 21.975 21.3333 24 21.3333H35C37.0251 21.3333 38.6667 22.975 38.6667 25V36C38.6667 38.025 37.0251 39.6667 35 39.6667H24C21.975 39.6667 20.3334 38.025 20.3334 36V25Z" fill="white"/>
<path fill-rule="evenodd" clip-rule="evenodd" d="M42.3333 6.66667H16.6666V3H42.3333V6.66667Z" fill="white"/>
<path fill-rule="evenodd" clip-rule="evenodd" d="M42.3333 58H16.6666V54.3333H42.3333V58Z" fill="white"/>
<path fill-rule="evenodd" clip-rule="evenodd" d="M1.99996 43.3333L1.99996 17.6667L5.66663 17.6667L5.66662 43.3333L1.99996 43.3333Z" fill="white"/>
<path fill-rule="evenodd" clip-rule="evenodd" d="M53.3333 43.3333L53.3333 17.6667L57 17.6667L57 43.3333L53.3333 43.3333Z" fill="white"/>
<path d="M107.084 15.229C107.084 15.4106 107.01 15.574 106.864 15.7193C106.754 15.8282 106.607 15.8827 106.423 15.8827H87.6585C87.4751 15.8827 87.3834 15.9735 87.3834 16.155V26.3408C87.3834 26.5223 87.4751 26.6131 87.6585 26.6131H100.26C100.444 26.6131 100.59 26.6858 100.7 26.831C100.847 26.9399 100.921 27.0852 100.921 27.2668V31.4064C100.921 31.588 100.847 31.7514 100.7 31.8966C100.59 32.0056 100.444 32.0601 100.26 32.0601H87.6585C87.4751 32.0601 87.3834 32.1508 87.3834 32.3324V42.845C87.3834 43.0265 87.4751 43.1173 87.6585 43.1173H106.423C106.607 43.1173 106.754 43.1899 106.864 43.3352C107.01 43.4441 107.084 43.5894 107.084 43.771V47.9106C107.084 48.0922 107.01 48.2556 106.864 48.4008C106.754 48.5098 106.607 48.5642 106.423 48.5642H81.6603C81.4769 48.5642 81.3118 48.5098 81.1651 48.4008C81.055 48.2556 81 48.0922 81 47.9106V11.0894C81 10.9078 81.055 10.7626 81.1651 10.6536C81.3118 10.5084 81.4769 10.4358 81.6603 10.4358H106.423C106.607 10.4358 106.754 10.5084 106.864 10.6536C107.01 10.7626 107.084 10.9078 107.084 11.0894V15.229Z" fill="white"/>
<path d="M135.963 11.0894C135.963 10.9078 136.018 10.7626 136.128 10.6536C136.275 10.5084 136.44 10.4358 136.623 10.4358H141.686C141.869 10.4358 142.016 10.5084 142.126 10.6536C142.273 10.7626 142.346 10.9078 142.346 11.0894V47.9106C142.346 48.0922 142.273 48.2556 142.126 48.4008C142.016 48.5098 141.869 48.5642 141.686 48.5642H136.788C136.421 48.5642 136.165 48.419 136.018 48.1285L120.169 22.419C120.096 22.3101 120.023 22.2737 119.949 22.3101C119.876 22.3101 119.839 22.3827 119.839 22.5279L119.949 47.9106C119.949 48.0922 119.876 48.2556 119.729 48.4008C119.619 48.5098 119.472 48.5642 119.289 48.5642H114.226C114.043 48.5642 113.878 48.5098 113.731 48.4008C113.621 48.2556 113.566 48.0922 113.566 47.9106V11.0894C113.566 10.9078 113.621 10.7626 113.731 10.6536C113.878 10.5084 114.043 10.4358 114.226 10.4358H119.124C119.491 10.4358 119.748 10.581 119.894 10.8715L135.688 36.581C135.761 36.6899 135.834 36.7444 135.908 36.7444C135.981 36.7081 136.018 36.6173 136.018 36.4721L135.963 11.0894Z" fill="white"/>
<path d="M163.254 49C160.503 49 158.081 48.4735 155.99 47.4204C153.899 46.331 152.285 44.824 151.148 42.8994C150.011 40.9749 149.442 38.7416 149.442 36.1997V22.7458C149.442 20.2039 150.011 17.9707 151.148 16.0461C152.285 14.1215 153.899 12.6327 155.99 11.5796C158.081 10.5265 160.503 10 163.254 10C165.969 10 168.372 10.5084 170.463 11.5251C172.554 12.5419 174.168 13.9763 175.306 15.8282C176.443 17.6802 177.011 19.8226 177.011 22.2556C177.011 22.4371 176.938 22.6006 176.791 22.7458C176.681 22.8547 176.535 22.9092 176.351 22.9092L171.288 23.1816C170.848 23.1816 170.628 22.9818 170.628 22.5824C170.628 20.4399 169.949 18.7151 168.592 17.4078C167.271 16.1006 165.492 15.4469 163.254 15.4469C161.016 15.4469 159.219 16.1006 157.861 17.4078C156.504 18.7151 155.825 20.4399 155.825 22.5824V36.4721C155.825 38.5782 156.504 40.2849 157.861 41.5922C159.219 42.8994 161.016 43.5531 163.254 43.5531C165.492 43.5531 167.271 42.9176 168.592 41.6466C169.949 40.3394 170.628 38.6145 170.628 36.4721C170.628 36.0726 170.848 35.8729 171.288 35.8729L176.351 36.0908C176.535 36.0908 176.681 36.1452 176.791 36.2542C176.938 36.3631 177.011 36.4902 177.011 36.6355C177.011 39.1047 176.443 41.2835 175.306 43.1718C174.168 45.0237 172.554 46.4581 170.463 47.4749C168.372 48.4916 165.969 49 163.254 49Z" fill="white"/>
<path d="M184.517 48.5642C184.334 48.5642 184.169 48.5098 184.022 48.4008C183.912 48.2556 183.857 48.0922 183.857 47.9106V11.0894C183.857 10.9078 183.912 10.7626 184.022 10.6536C184.169 10.5084 184.334 10.4358 184.517 10.4358H189.58C189.763 10.4358 189.91 10.5084 190.02 10.6536C190.167 10.7626 190.24 10.9078 190.24 11.0894V42.845C190.24 43.0265 190.332 43.1173 190.515 43.1173H208.95C209.134 43.1173 209.28 43.1899 209.39 43.3352C209.537 43.4441 209.611 43.5894 209.611 43.771V47.9106C209.611 48.0922 209.537 48.2556 209.39 48.4008C209.28 48.5098 209.134 48.5642 208.95 48.5642H184.517Z" fill="white"/>
<path d="M240.628 48.5642C240.261 48.5642 240.023 48.3827 239.913 48.0196L238.097 42.1913C238.023 42.0461 237.932 41.9735 237.822 41.9735H223.294C223.184 41.9735 223.092 42.0461 223.019 42.1913L221.203 48.0196C221.093 48.3827 220.854 48.5642 220.487 48.5642H214.984C214.764 48.5642 214.599 48.5098 214.489 48.4008C214.379 48.2556 214.361 48.0559 214.434 47.8017L226.375 10.9804C226.486 10.6173 226.724 10.4358 227.091 10.4358H233.969C234.336 10.4358 234.575 10.6173 234.685 10.9804L246.681 47.8017C246.718 47.8743 246.736 47.9651 246.736 48.074C246.736 48.4008 246.534 48.5642 246.131 48.5642H240.628ZM224.725 36.6899C224.688 36.9078 224.761 37.0168 224.945 37.0168H236.116C236.336 37.0168 236.409 36.9078 236.336 36.6899L230.668 18.4427C230.631 18.2975 230.576 18.2249 230.503 18.2249C230.429 18.2249 230.374 18.2975 230.338 18.4427L224.725 36.6899Z" fill="white"/>
<path d="M260.776 48.5642C260.409 48.5642 260.171 48.3827 260.061 48.0196L248.505 11.1983L248.45 10.9804C248.45 10.6173 248.652 10.4358 249.055 10.4358H254.503C254.907 10.4358 255.163 10.6173 255.273 10.9804L263.528 39.4134C263.564 39.5223 263.62 39.5768 263.693 39.5768C263.766 39.5768 263.821 39.5223 263.858 39.4134L272.057 10.9804C272.167 10.6173 272.424 10.4358 272.828 10.4358H278.166C278.386 10.4358 278.551 10.5084 278.661 10.6536C278.771 10.7989 278.789 10.9804 278.716 11.1983L266.995 48.0196C266.885 48.3827 266.646 48.5642 266.279 48.5642H260.776Z" fill="white"/>
<path d="M310.003 15.229C310.003 15.4106 309.93 15.574 309.783 15.7193C309.673 15.8282 309.526 15.8827 309.343 15.8827H290.578C290.395 15.8827 290.303 15.9735 290.303 16.155V26.3408C290.303 26.5223 290.395 26.6131 290.578 26.6131H303.18C303.363 26.6131 303.51 26.6858 303.62 26.831C303.767 26.9399 303.84 27.0852 303.84 27.2668V31.4064C303.84 31.588 303.767 31.7514 303.62 31.8966C303.51 32.0056 303.363 32.0601 303.18 32.0601H290.578C290.395 32.0601 290.303 32.1508 290.303 32.3324V42.845C290.303 43.0265 290.395 43.1173 290.578 43.1173H309.343C309.526 43.1173 309.673 43.1899 309.783 43.3352C309.93 43.4441 310.003 43.5894 310.003 43.771V47.9106C310.003 48.0922 309.93 48.2556 309.783 48.4008C309.673 48.5098 309.526 48.5642 309.343 48.5642H284.58C284.396 48.5642 284.231 48.5098 284.085 48.4008C283.975 48.2556 283.919 48.0922 283.919 47.9106V11.0894C283.919 10.9078 283.975 10.7626 284.085 10.6536C284.231 10.5084 284.396 10.4358 284.58 10.4358H309.343C309.526 10.4358 309.673 10.5084 309.783 10.6536C309.93 10.7626 310.003 10.9078 310.003 11.0894V15.229Z" fill="white"/>
<path d="M338.112 48.5642C337.745 48.5642 337.488 48.4008 337.341 48.074L330.078 32.3869C330.004 32.2416 329.894 32.169 329.747 32.169H323.144C322.961 32.169 322.869 32.2598 322.869 32.4413V47.9106C322.869 48.0922 322.795 48.2556 322.649 48.4008C322.539 48.5098 322.392 48.5642 322.209 48.5642H317.146C316.962 48.5642 316.797 48.5098 316.651 48.4008C316.541 48.2556 316.485 48.0922 316.485 47.9106V11.0894C316.485 10.9078 316.541 10.7626 316.651 10.6536C316.797 10.5084 316.962 10.4358 317.146 10.4358H332.279C334.517 10.4358 336.498 10.9078 338.222 11.852C339.946 12.7598 341.285 14.067 342.239 15.7737C343.193 17.4441 343.67 19.3687 343.67 21.5475C343.67 24.0531 343.009 26.1955 341.689 27.9749C340.405 29.7179 338.607 30.9344 336.296 31.6243C336.223 31.6243 336.168 31.6606 336.131 31.7332C336.094 31.8059 336.094 31.8785 336.131 31.9511L343.89 47.8017C343.963 47.9469 344 48.0559 344 48.1285C344 48.419 343.798 48.5642 343.395 48.5642H338.112ZM323.144 15.8827C322.961 15.8827 322.869 15.9735 322.869 16.155V26.9944C322.869 27.176 322.961 27.2668 323.144 27.2668H331.398C333.159 27.2668 334.572 26.7584 335.636 25.7416C336.736 24.6885 337.286 23.3087 337.286 21.602C337.286 19.8952 336.736 18.5154 335.636 17.4623C334.572 16.4092 333.159 15.8827 331.398 15.8827H323.144Z" fill="white"/>
</svg>
